<svg xmlns="http://www.w3.org/2000/svg" width="2075" height="1169" viewBox="0 0 2075 1169" fill="none">
  <!-- Wide mosaic block. Dark cover and the YouTube banner.
       Transparent background. Recolour by swapping this file.
       Per-tile fill opacity is baked in; the layer opacity in CSS is the design's group opacity. -->
  <g fill="#FFFFFF" fill-opacity="0">
    <rect x="991.4" y="0" width="92.2" height="92.2" rx="18.44"/>
    <rect x="1100.2" y="0" width="92.2" height="92.2" rx="18.44"/>
    <rect x="1970.3" y="0" width="92.2" height="92.2" rx="18.44"/>
    <rect x="338.8" y="108.8" width="92.2" height="92.2" rx="18.44"/>
    <rect x="556.3" y="108.8" width="92.2" height="92.2" rx="18.44"/>
    <rect x="555.9" y="217.5" width="92.2" height="92.2" rx="18.44"/>
    <rect x="664.6" y="217.5" width="92.2" height="92.2" rx="18.44"/>
    <rect x="773.4" y="217.5" width="92.2" height="92.2" rx="18.44"/>
    <rect x="882.2" y="217.5" width="92.2" height="92.2" rx="18.44"/>
    <rect x="990.9" y="217.5" width="92.2" height="92.2" rx="18.44"/>
    <rect x="1099.7" y="217.5" width="92.2" height="92.2" rx="18.44"/>
    <rect x="1208.5" y="217.5" width="92.2" height="92.2" rx="18.44"/>
    <rect x="1426" y="217.5" width="92.2" height="92.2" rx="18.44"/>
    <rect x="1534.8" y="217.5" width="92.2" height="92.2" rx="18.44"/>
    <rect x="1752.3" y="217.5" width="92.2" height="92.2" rx="18.44"/>
    <rect x="338.3" y="327.3" width="92.2" height="92.2" rx="18.44"/>
    <rect x="555.9" y="327.3" width="92.2" height="92.2" rx="18.44"/>
    <rect x="664.6" y="327.3" width="92.2" height="92.2" rx="18.44"/>
    <rect x="773.4" y="327.3" width="92.2" height="92.2" rx="18.44"/>
    <rect x="882.2" y="327.3" width="92.2" height="92.2" rx="18.44"/>
    <rect x="990.9" y="327.3" width="92.2" height="92.2" rx="18.44"/>
    <rect x="1099.7" y="327.3" width="92.2" height="92.2" rx="18.44"/>
    <rect x="1208.5" y="327.3" width="92.2" height="92.2" rx="18.44"/>
    <rect x="121.3" y="437" width="92.2" height="92.2" rx="18.44"/>
    <rect x="447.6" y="437" width="92.2" height="92.2" rx="18.44"/>
    <rect x="665.1" y="437" width="92.2" height="92.2" rx="18.44"/>
    <rect x="773.9" y="437" width="92.2" height="92.2" rx="18.44"/>
    <rect x="882.6" y="437" width="92.2" height="92.2" rx="18.44"/>
    <rect x="991.4" y="437" width="92.2" height="92.2" rx="18.44"/>
    <rect x="1100.2" y="437" width="92.2" height="92.2" rx="18.44"/>
    <rect x="1209" y="437" width="92.2" height="92.2" rx="18.44"/>
    <rect x="1317.7" y="437" width="92.2" height="92.2" rx="18.44"/>
    <rect x="556.3" y="545.8" width="92.2" height="92.2" rx="18.44"/>
    <rect x="991.4" y="545.8" width="92.2" height="92.2" rx="18.44"/>
    <rect x="1100.2" y="545.8" width="92.2" height="92.2" rx="18.44"/>
    <rect x="1209" y="545.8" width="92.2" height="92.2" rx="18.44"/>
    <rect x="1317.7" y="545.8" width="92.2" height="92.2" rx="18.44"/>
    <rect x="1426.5" y="545.8" width="92.2" height="92.2" rx="18.44"/>
    <rect x="1535.3" y="545.8" width="92.2" height="92.2" rx="18.44"/>
    <rect x="447.6" y="654.5" width="92.2" height="92.2" rx="18.44"/>
    <rect x="556.3" y="654.5" width="92.2" height="92.2" rx="18.44"/>
    <rect x="665.1" y="654.5" width="92.2" height="92.2" rx="18.44"/>
    <rect x="773.9" y="654.5" width="92.2" height="92.2" rx="18.44"/>
    <rect x="882.6" y="654.5" width="92.2" height="92.2" rx="18.44"/>
    <rect x="991.4" y="654.5" width="92.2" height="92.2" rx="18.44"/>
    <rect x="1100.2" y="654.5" width="92.2" height="92.2" rx="18.44"/>
    <rect x="1209" y="654.5" width="92.2" height="92.2" rx="18.44"/>
    <rect x="1317.7" y="654.5" width="92.2" height="92.2" rx="18.44"/>
    <rect x="1426.5" y="654.5" width="92.2" height="92.2" rx="18.44"/>
    <rect x="1535.3" y="654.5" width="92.2" height="92.2" rx="18.44"/>
    <rect x="555.9" y="763.3" width="92.2" height="92.2" rx="18.44"/>
    <rect x="664.6" y="763.3" width="92.2" height="92.2" rx="18.44"/>
    <rect x="773.4" y="763.3" width="92.2" height="92.2" rx="18.44"/>
    <rect x="882.2" y="763.3" width="92.2" height="92.2" rx="18.44"/>
    <rect x="990.9" y="763.3" width="92.2" height="92.2" rx="18.44"/>
    <rect x="1099.7" y="763.3" width="92.2" height="92.2" rx="18.44"/>
    <rect x="1208.5" y="763.3" width="92.2" height="92.2" rx="18.44"/>
    <rect x="1317.2" y="763.3" width="92.2" height="92.2" rx="18.44"/>
    <rect x="1426" y="763.3" width="92.2" height="92.2" rx="18.44"/>
    <rect x="556.3" y="873" width="92.2" height="92.2" rx="18.44"/>
    <rect x="665.1" y="873" width="92.2" height="92.2" rx="18.44"/>
    <rect x="773.9" y="873" width="92.2" height="92.2" rx="18.44"/>
    <rect x="882.6" y="873" width="92.2" height="92.2" rx="18.44"/>
    <rect x="991.4" y="873" width="92.2" height="92.2" rx="18.44"/>
    <rect x="1100.2" y="873" width="92.2" height="92.2" rx="18.44"/>
    <rect x="1209" y="873" width="92.2" height="92.2" rx="18.44"/>
    <rect x="1317.7" y="873" width="92.2" height="92.2" rx="18.44"/>
    <rect x="1426.5" y="873" width="92.2" height="92.2" rx="18.44"/>
    <rect x="448" y="981.8" width="92.2" height="92.2" rx="18.44"/>
    <rect x="556.8" y="981.8" width="92.2" height="92.2" rx="18.44"/>
    <rect x="665.6" y="981.8" width="92.2" height="92.2" rx="18.44"/>
    <rect x="774.4" y="981.8" width="92.2" height="92.2" rx="18.44"/>
    <rect x="883.1" y="981.8" width="92.2" height="92.2" rx="18.44"/>
    <rect x="991.9" y="981.8" width="92.2" height="92.2" rx="18.44"/>
    <rect x="1100.7" y="981.8" width="92.2" height="92.2" rx="18.44"/>
    <rect x="1209.4" y="981.8" width="92.2" height="92.2" rx="18.44"/>
    <rect x="1318.2" y="981.8" width="92.2" height="92.2" rx="18.44"/>
    <rect x="1427" y="981.8" width="92.2" height="92.2" rx="18.44"/>
    <rect x="1535.7" y="981.8" width="92.2" height="92.2" rx="18.44"/>
    <rect x="990.9" y="1091.5" width="92.2" height="92.2" rx="18.44"/>
    <rect x="1099.7" y="1091.5" width="92.2" height="92.2" rx="18.44"/>
    <rect x="1208.5" y="1091.5" width="92.2" height="92.2" rx="18.44"/>
    <rect x="11.5" y="1201.3" width="92.2" height="92.2" rx="18.44"/>
    <rect x="120.3" y="1201.3" width="92.2" height="92.2" rx="18.44"/>
    <rect x="557.3" y="1201.3" width="92.2" height="92.2" rx="18.44"/>
    <rect x="666.1" y="1201.3" width="92.2" height="92.2" rx="18.44"/>
    <rect x="774.8" y="1201.3" width="92.2" height="92.2" rx="18.44"/>
    <rect x="883.6" y="1201.3" width="92.2" height="92.2" rx="18.44"/>
    <rect x="992.4" y="1201.3" width="92.2" height="92.2" rx="18.44"/>
    <rect x="1101.1" y="1201.3" width="92.2" height="92.2" rx="18.44"/>
  </g>
  <g fill="#FFFFFF" fill-opacity="0.03">
    <rect x="1317.7" y="0" width="92.2" height="92.2" rx="18.44"/>
    <rect x="1535.3" y="0" width="92.2" height="92.2" rx="18.44"/>
    <rect x="1970.3" y="108.8" width="92.2" height="92.2" rx="18.44"/>
    <rect x="1969.9" y="217.5" width="93.1" height="93.1" rx="18.44"/>
    <rect x="1969.9" y="327.3" width="93.1" height="93.1" rx="18.44"/>
    <rect x="1535.3" y="437" width="92.2" height="92.2" rx="18.44"/>
    <rect x="12.5" y="545.8" width="92.2" height="92.2" rx="18.44"/>
    <rect x="447.6" y="545.8" width="92.2" height="92.2" rx="18.44"/>
    <rect x="338.3" y="763.3" width="92.2" height="92.2" rx="18.44"/>
    <rect x="1861.1" y="763.3" width="93.1" height="93.1" rx="18.44"/>
    <rect x="447.6" y="873" width="92.2" height="92.2" rx="18.44"/>
    <rect x="1535.3" y="873" width="92.2" height="92.2" rx="18.44"/>
    <rect x="1644.5" y="981.8" width="92.2" height="92.2" rx="18.44"/>
    <rect x="1862" y="981.8" width="92.2" height="92.2" rx="18.44"/>
    <rect x="120.8" y="1091.5" width="92.2" height="92.2" rx="18.44"/>
    <rect x="229.5" y="1091.5" width="92.2" height="92.2" rx="18.44"/>
    <rect x="555.9" y="1091.5" width="92.2" height="92.2" rx="18.44"/>
    <rect x="1426" y="1091.5" width="92.2" height="92.2" rx="18.44"/>
    <rect x="1534.8" y="1091.5" width="93.1" height="93.1" rx="18.44"/>
    <rect x="337.8" y="1201.3" width="93.1" height="93.1" rx="18.44"/>
    <rect x="447.6" y="1201.3" width="93.1" height="93.1" rx="18.44"/>
    <rect x="1318.7" y="1201.3" width="92.2" height="92.2" rx="18.44"/>
  </g>
  <g fill="#FFFFFF" fill-opacity="0.01">
    <rect x="447.6" y="0" width="92.2" height="92.2" rx="18.44"/>
    <rect x="1752.8" y="0" width="92.2" height="92.2" rx="18.44"/>
    <rect x="230" y="108.8" width="92.2" height="92.2" rx="18.44"/>
    <rect x="991.4" y="108.8" width="92.2" height="92.2" rx="18.44"/>
    <rect x="1100.2" y="108.8" width="92.2" height="92.2" rx="18.44"/>
    <rect x="1317.7" y="108.8" width="92.2" height="92.2" rx="18.44"/>
    <rect x="1426.5" y="108.8" width="92.2" height="92.2" rx="18.44"/>
    <rect x="1317.2" y="217.5" width="92.2" height="92.2" rx="18.44"/>
    <rect x="447.1" y="327.3" width="92.2" height="92.2" rx="18.44"/>
    <rect x="1317.2" y="327.3" width="92.2" height="92.2" rx="18.44"/>
    <rect x="665.1" y="545.8" width="92.2" height="92.2" rx="18.44"/>
    <rect x="773.9" y="545.8" width="92.2" height="92.2" rx="18.44"/>
    <rect x="447.1" y="763.3" width="92.2" height="92.2" rx="18.44"/>
    <rect x="1536.2" y="1201.3" width="92.2" height="92.2" rx="18.44"/>
    <rect x="1645" y="1201.3" width="92.2" height="92.2" rx="18.44"/>
    <rect x="1862.5" y="1201.3" width="92.2" height="92.2" rx="18.44"/>
    <rect x="773.9" y="1311" width="92.2" height="92.2" rx="18.44"/>
    <rect x="882.6" y="1311" width="92.2" height="92.2" rx="18.44"/>
  </g>
  <g fill="#7558F8" fill-opacity="0.08">
    <rect x="1643.5" y="327.3" width="92.2" height="92.2" rx="18.44"/>
    <rect x="1644" y="437" width="92.2" height="92.2" rx="18.44"/>
    <rect x="1970.3" y="437" width="92.2" height="92.2" rx="18.44"/>
    <rect x="1861.6" y="654.5" width="92.2" height="92.2" rx="18.44"/>
    <rect x="1534.8" y="763.3" width="92.2" height="92.2" rx="18.44"/>
    <rect x="1752.8" y="873" width="92.2" height="92.2" rx="18.44"/>
    <rect x="1862" y="1091.5" width="92.2" height="92.2" rx="18.44"/>
    <rect x="1100.2" y="1311" width="92.2" height="92.2" rx="18.44"/>
  </g>
  <g fill="#F1BE23" fill-opacity="0.1">
    <rect x="1861.1" y="327.3" width="92.2" height="92.2" rx="18.44"/>
    <rect x="1970.8" y="763.3" width="92.2" height="92.2" rx="18.44"/>
    <rect x="1644" y="873" width="92.2" height="92.2" rx="18.44"/>
    <rect x="338.3" y="1091.5" width="92.2" height="92.2" rx="18.44"/>
    <rect x="1317.2" y="1091.5" width="92.2" height="92.2" rx="18.44"/>
    <rect x="991.4" y="1311" width="92.2" height="92.2" rx="18.44"/>
  </g>
  <g fill="#29AEF6" fill-opacity="0.1">
    <rect x="120.8" y="327.3" width="92.2" height="92.2" rx="18.44"/>
    <rect x="1752.8" y="437" width="92.2" height="92.2" rx="18.44"/>
    <rect x="773.4" y="1091.5" width="92.2" height="92.2" rx="18.44"/>
    <rect x="1753.3" y="1091.5" width="92.2" height="92.2" rx="18.44"/>
    <rect x="1970.8" y="1091.5" width="92.2" height="92.2" rx="18.44"/>
  </g>
  <g fill="#A1F027" fill-opacity="0.1">
    <rect x="120.8" y="217.5" width="92.2" height="92.2" rx="18.44"/>
    <rect x="121.3" y="545.8" width="92.2" height="92.2" rx="18.44"/>
    <rect x="338.8" y="873" width="92.2" height="92.2" rx="18.44"/>
    <rect x="1753.3" y="981.8" width="92.2" height="92.2" rx="18.44"/>
    <rect x="1427.4" y="1201.3" width="92.2" height="92.2" rx="18.44"/>
  </g>
  <g fill="#F94EA6" fill-opacity="0.06">
    <rect x="230" y="0" width="92.2" height="92.2" rx="18.44"/>
    <rect x="1209" y="0" width="92.2" height="92.2" rx="18.44"/>
    <rect x="229.5" y="327.3" width="92.2" height="92.2" rx="18.44"/>
    <rect x="120.8" y="981.8" width="93.1" height="93.1" rx="18.44"/>
    <rect x="447.1" y="1091.5" width="92.2" height="92.2" rx="18.44"/>
  </g>
  <g fill="#29AEF6" fill-opacity="0.02">
    <rect x="665.1" y="0" width="92.2" height="92.2" rx="18.44"/>
    <rect x="1861.6" y="0" width="92.2" height="92.2" rx="18.44"/>
    <rect x="665.1" y="108.8" width="92.2" height="92.2" rx="18.44"/>
    <rect x="1971.3" y="1201.3" width="92.2" height="92.2" rx="18.44"/>
  </g>
  <g fill="#F94EA6" fill-opacity="0.1">
    <rect x="12.5" y="0" width="92.2" height="92.2" rx="18.44"/>
    <rect x="1209" y="108.8" width="92.2" height="92.2" rx="18.44"/>
    <rect x="230" y="654.5" width="92.2" height="92.2" rx="18.44"/>
    <rect x="121.3" y="873" width="92.2" height="92.2" rx="18.44"/>
  </g>
  <g fill="#FFFFFF" fill-opacity="0.06">
    <rect x="12" y="327.3" width="92.2" height="92.2" rx="18.44"/>
    <rect x="121.3" y="654.5" width="92.2" height="92.2" rx="18.44"/>
    <rect x="1970.3" y="873" width="92.2" height="92.2" rx="18.44"/>
    <rect x="229.1" y="1201.3" width="92.2" height="92.2" rx="18.44"/>
  </g>
  <g fill="#7558F8" fill-opacity="0.02">
    <rect x="773.9" y="0" width="92.2" height="92.2" rx="18.44"/>
    <rect x="1426" y="327.3" width="92.2" height="92.2" rx="18.44"/>
    <rect x="1209.9" y="1201.3" width="92.2" height="92.2" rx="18.44"/>
  </g>
  <g fill="#7558F8" fill-opacity="0.1">
    <rect x="1861.6" y="108.8" width="92.2" height="92.2" rx="18.44"/>
    <rect x="664.6" y="1091.5" width="92.2" height="92.2" rx="18.44"/>
    <rect x="1644.5" y="1091.5" width="92.2" height="92.2" rx="18.44"/>
  </g>
  <g fill="#F58535" fill-opacity="0.06">
    <rect x="338.8" y="0" width="92.2" height="92.2" rx="18.44"/>
    <rect x="1644" y="654.5" width="92.2" height="92.2" rx="18.44"/>
    <rect x="339.3" y="981.8" width="92.2" height="92.2" rx="18.44"/>
  </g>
  <g fill="#29AEF6" fill-opacity="0.03">
    <rect x="12.5" y="108.8" width="92.2" height="92.2" rx="18.44"/>
    <rect x="12.5" y="437" width="92.2" height="92.2" rx="18.44"/>
  </g>
  <g fill="#29AEF6" fill-opacity="0.04">
    <rect x="338.8" y="545.8" width="92.2" height="92.2" rx="18.44"/>
    <rect x="882.2" y="1091.5" width="92.2" height="92.2" rx="18.44"/>
  </g>
  <g fill="#29AEF6" fill-opacity="0.06">
    <rect x="1752.8" y="654.5" width="92.2" height="92.2" rx="18.44"/>
    <rect x="12" y="1091.5" width="92.2" height="92.2" rx="18.44"/>
  </g>
  <g fill="#29AEF6" fill-opacity="0.3">
    <rect x="338.8" y="437" width="92.2" height="92.2" rx="18.44"/>
    <rect x="1970.8" y="981.8" width="92.2" height="92.2" rx="18.44"/>
  </g>
  <g fill="#8DCF28" fill-opacity="0.2">
    <rect x="1752.3" y="327.3" width="92.2" height="92.2" rx="18.44"/>
    <rect x="12" y="981.8" width="92.2" height="92.2" rx="18.44"/>
  </g>
  <g fill="#A1F027" fill-opacity="0.06">
    <rect x="556.3" y="0" width="92.2" height="92.2" rx="18.44"/>
    <rect x="1644" y="545.8" width="92.2" height="92.2" rx="18.44"/>
  </g>
  <g fill="#F58535" fill-opacity="0.03">
    <rect x="1426.5" y="0" width="92.2" height="92.2" rx="18.44"/>
    <rect x="1209" y="1311" width="92.2" height="92.2" rx="18.44"/>
  </g>
  <g fill="#F58535" fill-opacity="0.1">
    <rect x="1861.1" y="217.5" width="92.2" height="92.2" rx="18.44"/>
    <rect x="1752.3" y="763.3" width="92.2" height="92.2" rx="18.44"/>
  </g>
  <g fill="#F58535" fill-opacity="0.2">
    <rect x="12" y="217.5" width="92.2" height="92.2" rx="18.44"/>
    <rect x="12.5" y="873" width="92.2" height="92.2" rx="18.44"/>
  </g>
  <g fill="#F94EA6" fill-opacity="0.4">
    <rect x="1861.6" y="437" width="92.2" height="92.2" rx="18.44"/>
    <rect x="120.8" y="763.3" width="92.2" height="92.2" rx="18.44"/>
  </g>
  <g fill="#FFFFFF" fill-opacity="0.04">
    <rect x="338.3" y="217.5" width="92.2" height="92.2" rx="18.44"/>
    <rect x="229.5" y="763.3" width="92.2" height="92.2" rx="18.44"/>
  </g>
  <g fill="#FFFFFF" fill-opacity="0.05">
    <rect x="1644" y="0" width="92.2" height="92.2" rx="18.44"/>
    <rect x="1752.8" y="545.8" width="92.2" height="92.2" rx="18.44"/>
  </g>
  <g fill="#FFFFFF" fill-opacity="0.2">
    <rect x="229.5" y="217.5" width="92.2" height="92.2" rx="18.44"/>
    <rect x="1861.6" y="873" width="92.2" height="92.2" rx="18.44"/>
  </g>
  <g fill="#29AEF6" fill-opacity="0.08">
    <rect x="1535.3" y="108.8" width="92.2" height="92.2" rx="18.44"/>
  </g>
  <g fill="#29AEF6" fill-opacity="0.16">
    <rect x="12.5" y="654.5" width="92.2" height="92.2" rx="18.44"/>
  </g>
  <g fill="#29AEF6" fill-opacity="0.2">
    <rect x="230" y="873" width="92.2" height="92.2" rx="18.44"/>
  </g>
  <g fill="#29AEF6" fill-opacity="0.5">
    <rect x="230" y="545.8" width="92.2" height="92.2" rx="18.44"/>
  </g>
  <g fill="#4D58F2" fill-opacity="0.04">
    <rect x="882.6" y="0" width="92.2" height="92.2" rx="18.44"/>
  </g>
  <g fill="#7558F8" fill-opacity="0.2">
    <rect x="121.3" y="0" width="92.2" height="92.2" rx="18.44"/>
  </g>
  <g fill="#7558F8" fill-opacity="0.4">
    <rect x="338.8" y="654.5" width="92.2" height="92.2" rx="18.44"/>
  </g>
  <g fill="#8DCF28" fill-opacity="0.04">
    <rect x="882.6" y="545.8" width="92.2" height="92.2" rx="18.44"/>
  </g>
  <g fill="#8DCF28" fill-opacity="0.12">
    <rect x="12" y="763.3" width="92.2" height="92.2" rx="18.44"/>
  </g>
  <g fill="#8DCF28" fill-opacity="0.4">
    <rect x="1861.6" y="545.8" width="92.2" height="92.2" rx="18.44"/>
  </g>
  <g fill="#A1F027" fill-opacity="0">
    <rect x="773.9" y="108.8" width="92.2" height="92.2" rx="18.44"/>
  </g>
  <g fill="#A1F027" fill-opacity="0.01">
    <rect x="447.1" y="217.5" width="92.2" height="92.2" rx="18.44"/>
  </g>
  <g fill="#A1F027" fill-opacity="0.2">
    <rect x="1970.3" y="654.5" width="92.2" height="92.2" rx="18.44"/>
  </g>
  <g fill="#F1BE23" fill-opacity="0.01">
    <rect x="556.3" y="437" width="92.2" height="92.2" rx="18.44"/>
  </g>
  <g fill="#F1BE23" fill-opacity="0.03">
    <rect x="1426.5" y="437" width="92.2" height="92.2" rx="18.44"/>
  </g>
  <g fill="#F1BE23" fill-opacity="0.04">
    <rect x="1644" y="108.8" width="92.2" height="92.2" rx="18.44"/>
  </g>
  <g fill="#F1BE23" fill-opacity="0.05">
    <rect x="1643.5" y="763.3" width="92.2" height="92.2" rx="18.44"/>
  </g>
  <g fill="#F1BE23" fill-opacity="0.2">
    <rect x="121.3" y="108.8" width="92.2" height="92.2" rx="18.44"/>
  </g>
  <g fill="#F58535" fill-opacity="0">
    <rect x="1534.8" y="327.3" width="92.2" height="92.2" rx="18.44"/>
  </g>
  <g fill="#F58535" fill-opacity="0.02">
    <rect x="1753.8" y="1201.3" width="92.2" height="92.2" rx="18.44"/>
  </g>
  <g fill="#F58535" fill-opacity="0.08">
    <rect x="1643.5" y="217.5" width="92.2" height="92.2" rx="18.44"/>
  </g>
  <g fill="#F94EA6" fill-opacity="0.03">
    <rect x="882.6" y="108.8" width="92.2" height="92.2" rx="18.44"/>
  </g>
  <g fill="#F94EA6" fill-opacity="0.04">
    <rect x="447.6" y="108.8" width="92.2" height="92.2" rx="18.44"/>
  </g>
  <g fill="#F94EA6" fill-opacity="0.3">
    <rect x="230.5" y="981.8" width="92.2" height="92.2" rx="18.44"/>
  </g>
  <g fill="#FFFFFF" fill-opacity="0.1">
    <rect x="230" y="437" width="92.2" height="92.2" rx="18.44"/>
  </g>
  <g fill="#FFFFFF" fill-opacity="0.16">
    <rect x="1970.3" y="545.8" width="92.2" height="92.2" rx="18.44"/>
  </g>
  <g fill="#FFFFFF" fill-opacity="0.3">
    <rect x="1752.8" y="108.8" width="92.2" height="92.2" rx="18.44"/>
  </g>
</svg>
